<mxfile host="app.diagrams.net" agent="Mozilla/5.0 (Macintosh; Intel Mac OS X 10_15_7) AppleWebKit/605.1.15 (KHTML, like Gecko) Version/17.6 Safari/605.1.15" version="24.9.3">
  <diagram name="Page-1" id="w1eLy4aO_ShYACRrJRT9">
    <mxGraphModel dx="6807" dy="5013" grid="0" gridSize="10" guides="0" tooltips="1" connect="0" arrows="0" fold="1" page="0" pageScale="1" pageWidth="850" pageHeight="1100" background="#99CCFF" math="0" shadow="0">
      <root>
        <mxCell id="0" />
        <mxCell id="1" parent="0" />
        <mxCell id="1SwPzvVHOpwxIiqIaS0x-20" value="" style="edgeStyle=orthogonalEdgeStyle;rounded=0;orthogonalLoop=1;jettySize=auto;html=1;entryX=0.5;entryY=0;entryDx=0;entryDy=0;" edge="1" parent="1" source="mMqngy-oRDLJngFhtLe7-1" target="1SwPzvVHOpwxIiqIaS0x-14">
          <mxGeometry relative="1" as="geometry" />
        </mxCell>
        <mxCell id="1SwPzvVHOpwxIiqIaS0x-21" style="edgeStyle=orthogonalEdgeStyle;rounded=0;orthogonalLoop=1;jettySize=auto;html=1;" edge="1" parent="1" source="mMqngy-oRDLJngFhtLe7-1" target="1SwPzvVHOpwxIiqIaS0x-15">
          <mxGeometry relative="1" as="geometry" />
        </mxCell>
        <mxCell id="mMqngy-oRDLJngFhtLe7-1" value="&lt;span style=&quot;caret-color: rgb(0, 0, 0); color: rgb(0, 0, 0); font-family: Helvetica; font-style: normal; font-variant-caps: normal; font-weight: 400; letter-spacing: normal; text-align: start; text-indent: 0px; text-transform: none; white-space: normal; word-spacing: 0px; -webkit-text-stroke-width: 0px; background-color: rgb(251, 251, 251); text-decoration: none; float: none; display: inline !important;&quot;&gt;&lt;font style=&quot;font-size: 28px;&quot;&gt;Контроль взаимодействие между подразделениями&lt;span class=&quot;Apple-converted-space&quot;&gt;&amp;nbsp;&lt;/span&gt;&lt;/font&gt;&lt;/span&gt;" style="shape=step;perimeter=stepPerimeter;whiteSpace=wrap;html=1;fixedSize=1;" parent="1" vertex="1">
          <mxGeometry x="390" y="-80" width="280" height="150" as="geometry" />
        </mxCell>
        <mxCell id="mMqngy-oRDLJngFhtLe7-2" value="&lt;span style=&quot;caret-color: rgb(0, 0, 0); color: rgb(0, 0, 0); font-family: Helvetica; font-style: normal; font-variant-caps: normal; font-weight: 400; letter-spacing: normal; text-align: start; text-indent: 0px; text-transform: none; white-space: normal; word-spacing: 0px; -webkit-text-stroke-width: 0px; background-color: rgb(251, 251, 251); text-decoration: none; float: none; display: inline !important;&quot;&gt;&lt;font style=&quot;font-size: 28px;&quot;&gt;Финансовое управление&lt;span class=&quot;Apple-converted-space&quot;&gt;&amp;nbsp;&lt;/span&gt;&lt;/font&gt;&lt;/span&gt;" style="shape=step;perimeter=stepPerimeter;whiteSpace=wrap;html=1;fixedSize=1;" parent="1" vertex="1">
          <mxGeometry x="920" y="-72.5" width="310" height="150" as="geometry" />
        </mxCell>
        <mxCell id="1SwPzvVHOpwxIiqIaS0x-24" style="edgeStyle=orthogonalEdgeStyle;rounded=0;orthogonalLoop=1;jettySize=auto;html=1;entryX=0.5;entryY=0;entryDx=0;entryDy=0;" edge="1" parent="1" source="mMqngy-oRDLJngFhtLe7-3" target="1SwPzvVHOpwxIiqIaS0x-17">
          <mxGeometry relative="1" as="geometry" />
        </mxCell>
        <mxCell id="1SwPzvVHOpwxIiqIaS0x-25" style="edgeStyle=orthogonalEdgeStyle;rounded=0;orthogonalLoop=1;jettySize=auto;html=1;entryX=0.5;entryY=0;entryDx=0;entryDy=0;" edge="1" parent="1" source="mMqngy-oRDLJngFhtLe7-3" target="1SwPzvVHOpwxIiqIaS0x-18">
          <mxGeometry relative="1" as="geometry" />
        </mxCell>
        <mxCell id="mMqngy-oRDLJngFhtLe7-3" value="&lt;span style=&quot;caret-color: rgb(0, 0, 0); color: rgb(0, 0, 0); font-family: Helvetica; font-style: normal; font-variant-caps: normal; font-weight: 400; letter-spacing: normal; text-indent: 0px; text-transform: none; white-space: normal; word-spacing: 0px; -webkit-text-stroke-width: 0px; background-color: rgb(251, 251, 251); text-decoration: none; float: none; display: inline !important;&quot;&gt;&lt;font style=&quot;font-size: 28px;&quot;&gt;Управление качеством&lt;span class=&quot;Apple-converted-space&quot;&gt;&amp;nbsp;&lt;/span&gt;&lt;/font&gt;&lt;/span&gt;" style="shape=step;perimeter=stepPerimeter;whiteSpace=wrap;html=1;fixedSize=1;align=center;" parent="1" vertex="1">
          <mxGeometry x="1560" y="-90" width="300" height="160" as="geometry" />
        </mxCell>
        <mxCell id="1SwPzvVHOpwxIiqIaS0x-27" value="" style="edgeStyle=orthogonalEdgeStyle;rounded=0;orthogonalLoop=1;jettySize=auto;html=1;" edge="1" parent="1" source="mMqngy-oRDLJngFhtLe7-4" target="1SwPzvVHOpwxIiqIaS0x-19">
          <mxGeometry relative="1" as="geometry" />
        </mxCell>
        <mxCell id="mMqngy-oRDLJngFhtLe7-4" value="" style="shape=step;perimeter=stepPerimeter;whiteSpace=wrap;html=1;fixedSize=1;" parent="1" vertex="1">
          <mxGeometry x="2240" y="-80" width="270" height="157.5" as="geometry" />
        </mxCell>
        <mxCell id="mMqngy-oRDLJngFhtLe7-6" value="&lt;span style=&quot;caret-color: rgb(0, 0, 0); color: rgb(0, 0, 0); font-family: Helvetica; font-style: normal; font-variant-caps: normal; font-weight: 400; letter-spacing: normal; text-indent: 0px; text-transform: none; white-space: normal; word-spacing: 0px; -webkit-text-stroke-width: 0px; background-color: rgb(251, 251, 251); text-decoration: none; float: none; display: inline !important;&quot;&gt;&lt;font style=&quot;font-size: 28px;&quot;&gt;Управление процессами &amp;nbsp;&lt;/font&gt;&lt;/span&gt;" style="text;whiteSpace=wrap;html=1;align=center;" parent="1" vertex="1">
          <mxGeometry x="2275" y="-50" width="200" height="70" as="geometry" />
        </mxCell>
        <mxCell id="1SwPzvVHOpwxIiqIaS0x-14" value="&lt;font style=&quot;font-size: 24px;&quot;&gt;Коммуникация между мастерскими и главным конструктором&amp;nbsp;&lt;/font&gt;" style="shape=step;perimeter=stepPerimeter;whiteSpace=wrap;html=1;fixedSize=1;" vertex="1" parent="1">
          <mxGeometry x="210" y="150" width="240" height="130" as="geometry" />
        </mxCell>
        <mxCell id="1SwPzvVHOpwxIiqIaS0x-15" value="&lt;font style=&quot;font-size: 25px;&quot;&gt;Коммуникация между финансовым и юридическим отделом&lt;/font&gt;" style="shape=step;perimeter=stepPerimeter;whiteSpace=wrap;html=1;fixedSize=1;" vertex="1" parent="1">
          <mxGeometry x="590" y="150" width="240" height="130" as="geometry" />
        </mxCell>
        <mxCell id="1SwPzvVHOpwxIiqIaS0x-17" value="&lt;font style=&quot;font-size: 26px;&quot;&gt;Отслеживание качества материалов&amp;nbsp;&lt;/font&gt;" style="shape=step;perimeter=stepPerimeter;whiteSpace=wrap;html=1;fixedSize=1;" vertex="1" parent="1">
          <mxGeometry x="1420" y="150" width="240" height="130" as="geometry" />
        </mxCell>
        <mxCell id="1SwPzvVHOpwxIiqIaS0x-18" value="&lt;font style=&quot;font-size: 24px;&quot;&gt;Отслеживания качества работы мастерских работников&amp;nbsp;&lt;/font&gt;" style="shape=step;perimeter=stepPerimeter;whiteSpace=wrap;html=1;fixedSize=1;" vertex="1" parent="1">
          <mxGeometry x="1760" y="150" width="240" height="130" as="geometry" />
        </mxCell>
        <mxCell id="1SwPzvVHOpwxIiqIaS0x-19" value="&lt;font style=&quot;font-size: 28px;&quot;&gt;Обработка заявок&lt;/font&gt;" style="shape=step;perimeter=stepPerimeter;whiteSpace=wrap;html=1;fixedSize=1;" vertex="1" parent="1">
          <mxGeometry x="2060" y="160" width="240" height="130" as="geometry" />
        </mxCell>
        <mxCell id="1SwPzvVHOpwxIiqIaS0x-28" value="&lt;font style=&quot;font-size: 18px;&quot;&gt;Отслеживания этапов прогресса проекта в каждой мастерской&lt;/font&gt;" style="shape=step;perimeter=stepPerimeter;whiteSpace=wrap;html=1;fixedSize=1;" vertex="1" parent="1">
          <mxGeometry x="330" y="320" width="230" height="110" as="geometry" />
        </mxCell>
        <mxCell id="1SwPzvVHOpwxIiqIaS0x-31" value="" style="endArrow=none;html=1;rounded=0;entryX=0.371;entryY=1.019;entryDx=0;entryDy=0;entryPerimeter=0;" edge="1" parent="1" target="1SwPzvVHOpwxIiqIaS0x-14">
          <mxGeometry width="50" height="50" relative="1" as="geometry">
            <mxPoint x="299" y="380" as="sourcePoint" />
            <mxPoint x="310" y="290" as="targetPoint" />
          </mxGeometry>
        </mxCell>
        <mxCell id="1SwPzvVHOpwxIiqIaS0x-32" value="" style="endArrow=none;html=1;rounded=0;exitX=0;exitY=0.5;exitDx=0;exitDy=0;" edge="1" parent="1" source="1SwPzvVHOpwxIiqIaS0x-28">
          <mxGeometry width="50" height="50" relative="1" as="geometry">
            <mxPoint x="550" y="290" as="sourcePoint" />
            <mxPoint x="300" y="375" as="targetPoint" />
          </mxGeometry>
        </mxCell>
        <mxCell id="1SwPzvVHOpwxIiqIaS0x-41" value="" style="endArrow=none;html=1;rounded=0;entryX=0.371;entryY=1.019;entryDx=0;entryDy=0;entryPerimeter=0;" edge="1" parent="1">
          <mxGeometry width="50" height="50" relative="1" as="geometry">
            <mxPoint x="1070" y="485.5" as="sourcePoint" />
            <mxPoint x="1070" y="77.5" as="targetPoint" />
          </mxGeometry>
        </mxCell>
        <mxCell id="1SwPzvVHOpwxIiqIaS0x-42" value="&lt;span style=&quot;font-size: 26px;&quot;&gt;Проектный бюджет&lt;/span&gt;" style="shape=step;perimeter=stepPerimeter;whiteSpace=wrap;html=1;fixedSize=1;" vertex="1" parent="1">
          <mxGeometry x="1130" y="280.5" width="230" height="110" as="geometry" />
        </mxCell>
        <mxCell id="1SwPzvVHOpwxIiqIaS0x-43" value="&lt;font style=&quot;font-size: 28px;&quot;&gt;Финансовый учет&amp;nbsp;&lt;/font&gt;" style="shape=step;perimeter=stepPerimeter;whiteSpace=wrap;html=1;fixedSize=1;" vertex="1" parent="1">
          <mxGeometry x="1130" y="125.5" width="230" height="110" as="geometry" />
        </mxCell>
        <mxCell id="1SwPzvVHOpwxIiqIaS0x-45" value="" style="endArrow=none;html=1;rounded=0;exitX=0;exitY=0.5;exitDx=0;exitDy=0;" edge="1" parent="1" source="1SwPzvVHOpwxIiqIaS0x-42">
          <mxGeometry width="50" height="50" relative="1" as="geometry">
            <mxPoint x="320" y="180.5" as="sourcePoint" />
            <mxPoint x="1071.6666666666667" y="335.5" as="targetPoint" />
          </mxGeometry>
        </mxCell>
        <mxCell id="1SwPzvVHOpwxIiqIaS0x-46" value="" style="endArrow=none;html=1;rounded=0;exitX=0;exitY=0.5;exitDx=0;exitDy=0;" edge="1" parent="1" source="1SwPzvVHOpwxIiqIaS0x-59">
          <mxGeometry width="50" height="50" relative="1" as="geometry">
            <mxPoint x="2288.33" y="383.74999999999994" as="sourcePoint" />
            <mxPoint x="2220" y="375" as="targetPoint" />
          </mxGeometry>
        </mxCell>
        <mxCell id="1SwPzvVHOpwxIiqIaS0x-48" value="&lt;font style=&quot;font-size: 28px;&quot;&gt;Приоритетная выборка&amp;nbsp;&lt;/font&gt;" style="shape=step;perimeter=stepPerimeter;whiteSpace=wrap;html=1;fixedSize=1;" vertex="1" parent="1">
          <mxGeometry x="2490" y="160" width="240" height="130" as="geometry" />
        </mxCell>
        <mxCell id="1SwPzvVHOpwxIiqIaS0x-49" style="edgeStyle=orthogonalEdgeStyle;rounded=0;orthogonalLoop=1;jettySize=auto;html=1;entryX=0.387;entryY=0.01;entryDx=0;entryDy=0;entryPerimeter=0;" edge="1" parent="1" source="mMqngy-oRDLJngFhtLe7-4" target="1SwPzvVHOpwxIiqIaS0x-48">
          <mxGeometry relative="1" as="geometry" />
        </mxCell>
        <mxCell id="1SwPzvVHOpwxIiqIaS0x-58" value="" style="endArrow=none;html=1;rounded=0;entryX=0.371;entryY=1.019;entryDx=0;entryDy=0;entryPerimeter=0;" edge="1" parent="1">
          <mxGeometry width="50" height="50" relative="1" as="geometry">
            <mxPoint x="2220" y="380" as="sourcePoint" />
            <mxPoint x="2220" y="290" as="targetPoint" />
          </mxGeometry>
        </mxCell>
        <mxCell id="1SwPzvVHOpwxIiqIaS0x-59" value="&lt;font style=&quot;font-size: 20px;&quot;&gt;Система принятия заявок крупных и маленьких компаний&lt;/font&gt;" style="shape=step;perimeter=stepPerimeter;whiteSpace=wrap;html=1;fixedSize=1;" vertex="1" parent="1">
          <mxGeometry x="2275" y="320" width="230" height="110" as="geometry" />
        </mxCell>
        <mxCell id="1SwPzvVHOpwxIiqIaS0x-60" value="" style="endArrow=none;html=1;rounded=0;exitX=0;exitY=0.5;exitDx=0;exitDy=0;" edge="1" parent="1">
          <mxGeometry width="50" height="50" relative="1" as="geometry">
            <mxPoint x="1148.33" y="179.78999999999996" as="sourcePoint" />
            <mxPoint x="1069.9966666666667" y="179.78999999999996" as="targetPoint" />
          </mxGeometry>
        </mxCell>
        <mxCell id="1SwPzvVHOpwxIiqIaS0x-120" style="edgeStyle=orthogonalEdgeStyle;rounded=0;orthogonalLoop=1;jettySize=auto;html=1;exitX=0.5;exitY=1;exitDx=0;exitDy=0;" edge="1" parent="1" source="1SwPzvVHOpwxIiqIaS0x-73">
          <mxGeometry relative="1" as="geometry">
            <mxPoint x="1399.571428571429" y="1160" as="targetPoint" />
          </mxGeometry>
        </mxCell>
        <mxCell id="1SwPzvVHOpwxIiqIaS0x-73" value="&lt;font style=&quot;font-size: 28px;&quot;&gt;&lt;span style=&quot;text-align: start;&quot;&gt;Оказание услуг (Выполнения договора)&lt;/span&gt;&amp;nbsp;&lt;/font&gt;" style="shape=step;perimeter=stepPerimeter;whiteSpace=wrap;html=1;fixedSize=1;" vertex="1" parent="1">
          <mxGeometry x="1260" y="960" width="280" height="150" as="geometry" />
        </mxCell>
        <mxCell id="1SwPzvVHOpwxIiqIaS0x-74" value="&lt;p style=&quot;margin: 0px; font-style: normal; font-variant-caps: normal; font-stretch: normal; line-height: normal; font-size-adjust: none; font-kerning: auto; font-variant-alternates: normal; font-variant-ligatures: normal; font-variant-numeric: normal; font-variant-east-asian: normal; font-variant-position: normal; font-variant-emoji: normal; font-feature-settings: normal; font-optical-sizing: auto; font-variation-settings: normal;&quot;&gt;&lt;font style=&quot;font-size: 25px;&quot;&gt;Маркетинг (Привлечения клиента и заключения договора)&lt;/font&gt;&lt;/p&gt;" style="shape=step;perimeter=stepPerimeter;whiteSpace=wrap;html=1;fixedSize=1;" vertex="1" parent="1">
          <mxGeometry x="410" y="940" width="280" height="150" as="geometry" />
        </mxCell>
        <mxCell id="1SwPzvVHOpwxIiqIaS0x-75" value="&lt;font style=&quot;font-size: 25px;&quot;&gt;&lt;span style=&quot;text-align: start;&quot;&gt;Послепродажное обслуживание (Доработки после выполнения договора)&lt;/span&gt;&amp;nbsp;&lt;/font&gt;" style="shape=step;perimeter=stepPerimeter;whiteSpace=wrap;html=1;fixedSize=1;" vertex="1" parent="1">
          <mxGeometry x="2100" y="950" width="280" height="150" as="geometry" />
        </mxCell>
        <mxCell id="1SwPzvVHOpwxIiqIaS0x-76" value="&lt;p style=&quot;margin: 0px; font-style: normal; font-variant-caps: normal; font-stretch: normal; line-height: normal; font-size-adjust: none; font-kerning: auto; font-variant-alternates: normal; font-variant-ligatures: normal; font-variant-numeric: normal; font-variant-east-asian: normal; font-variant-position: normal; font-variant-emoji: normal; font-feature-settings: normal; font-optical-sizing: auto; font-variation-settings: normal;&quot;&gt;&lt;font style=&quot;font-size: 28px;&quot;&gt;Бухгалтерский и налоговый учет&lt;/font&gt;&lt;/p&gt;" style="shape=step;perimeter=stepPerimeter;whiteSpace=wrap;html=1;fixedSize=1;" vertex="1" parent="1">
          <mxGeometry x="2350" y="2040" width="280" height="150" as="geometry" />
        </mxCell>
        <mxCell id="1SwPzvVHOpwxIiqIaS0x-77" value="&lt;p style=&quot;margin: 0px; font-style: normal; font-variant-caps: normal; font-stretch: normal; line-height: normal; font-size-adjust: none; font-kerning: auto; font-variant-alternates: normal; font-variant-ligatures: normal; font-variant-numeric: normal; font-variant-east-asian: normal; font-variant-position: normal; font-variant-emoji: normal; font-feature-settings: normal; font-optical-sizing: auto; font-variation-settings: normal;&quot;&gt;&lt;font style=&quot;font-size: 28px;&quot;&gt;Снабжение и логистика&lt;/font&gt;&lt;/p&gt;" style="shape=step;perimeter=stepPerimeter;whiteSpace=wrap;html=1;fixedSize=1;" vertex="1" parent="1">
          <mxGeometry x="1910" y="2040" width="280" height="150" as="geometry" />
        </mxCell>
        <mxCell id="1SwPzvVHOpwxIiqIaS0x-78" value="&lt;p style=&quot;margin: 0px; font-style: normal; font-variant-caps: normal; font-stretch: normal; line-height: normal; font-size-adjust: none; font-kerning: auto; font-variant-alternates: normal; font-variant-ligatures: normal; font-variant-numeric: normal; font-variant-east-asian: normal; font-variant-position: normal; font-variant-emoji: normal; font-feature-settings: normal; font-optical-sizing: auto; font-variation-settings: normal;&quot;&gt;&lt;font style=&quot;font-size: 28px;&quot;&gt;Управление кадрами&lt;/font&gt;&lt;/p&gt;" style="shape=step;perimeter=stepPerimeter;whiteSpace=wrap;html=1;fixedSize=1;" vertex="1" parent="1">
          <mxGeometry x="1450" y="2040" width="280" height="150" as="geometry" />
        </mxCell>
        <mxCell id="1SwPzvVHOpwxIiqIaS0x-79" value="&lt;p style=&quot;margin: 0px; font-style: normal; font-variant-caps: normal; font-stretch: normal; line-height: normal; font-size-adjust: none; font-kerning: auto; font-variant-alternates: normal; font-variant-ligatures: normal; font-variant-numeric: normal; font-variant-east-asian: normal; font-variant-position: normal; font-variant-emoji: normal; font-feature-settings: normal; font-optical-sizing: auto; font-variation-settings: normal;&quot;&gt;&lt;span style=&quot;font-size: 28px;&quot;&gt;ИТ-поддержка&lt;/span&gt;&lt;br&gt;&lt;/p&gt;" style="shape=step;perimeter=stepPerimeter;whiteSpace=wrap;html=1;fixedSize=1;" vertex="1" parent="1">
          <mxGeometry x="1020" y="2040" width="280" height="150" as="geometry" />
        </mxCell>
        <mxCell id="1SwPzvVHOpwxIiqIaS0x-80" value="&lt;p style=&quot;margin: 0px; font-style: normal; font-variant-caps: normal; font-stretch: normal; line-height: normal; font-size-adjust: none; font-kerning: auto; font-variant-alternates: normal; font-variant-ligatures: normal; font-variant-numeric: normal; font-variant-east-asian: normal; font-variant-position: normal; font-variant-emoji: normal; font-feature-settings: normal; font-optical-sizing: auto; font-variation-settings: normal;&quot;&gt;&lt;font style=&quot;font-size: 28px;&quot;&gt;Финансовое сопровождение&lt;/font&gt;&lt;br&gt;&lt;/p&gt;" style="shape=step;perimeter=stepPerimeter;whiteSpace=wrap;html=1;fixedSize=1;" vertex="1" parent="1">
          <mxGeometry x="600" y="2040" width="280" height="150" as="geometry" />
        </mxCell>
        <mxCell id="1SwPzvVHOpwxIiqIaS0x-81" value="&lt;p style=&quot;margin: 0px; font-style: normal; font-variant-caps: normal; font-stretch: normal; line-height: normal; font-size-adjust: none; font-kerning: auto; font-variant-alternates: normal; font-variant-ligatures: normal; font-variant-numeric: normal; font-variant-east-asian: normal; font-variant-position: normal; font-variant-emoji: normal; font-feature-settings: normal; font-optical-sizing: auto; font-variation-settings: normal;&quot;&gt;&lt;font style=&quot;font-size: 28px;&quot;&gt;Юридическое сопровождение&lt;/font&gt;&lt;br&gt;&lt;/p&gt;" style="shape=step;perimeter=stepPerimeter;whiteSpace=wrap;html=1;fixedSize=1;" vertex="1" parent="1">
          <mxGeometry x="130" y="2040" width="280" height="150" as="geometry" />
        </mxCell>
        <mxCell id="1SwPzvVHOpwxIiqIaS0x-82" value="" style="endArrow=none;html=1;rounded=0;" edge="1" parent="1">
          <mxGeometry width="50" height="50" relative="1" as="geometry">
            <mxPoint x="2048.5699999999997" y="2320" as="sourcePoint" />
            <mxPoint x="2048.5699999999997" y="2200" as="targetPoint" />
          </mxGeometry>
        </mxCell>
        <mxCell id="1SwPzvVHOpwxIiqIaS0x-83" value="" style="endArrow=none;html=1;rounded=0;" edge="1" parent="1">
          <mxGeometry width="50" height="50" relative="1" as="geometry">
            <mxPoint x="2490" y="2310" as="sourcePoint" />
            <mxPoint x="2490" y="2190" as="targetPoint" />
          </mxGeometry>
        </mxCell>
        <mxCell id="1SwPzvVHOpwxIiqIaS0x-85" value="" style="endArrow=none;html=1;rounded=0;" edge="1" parent="1">
          <mxGeometry width="50" height="50" relative="1" as="geometry">
            <mxPoint x="1158.5700000000002" y="2310" as="sourcePoint" />
            <mxPoint x="1158.5700000000002" y="2190" as="targetPoint" />
          </mxGeometry>
        </mxCell>
        <mxCell id="1SwPzvVHOpwxIiqIaS0x-86" value="" style="endArrow=none;html=1;rounded=0;" edge="1" parent="1">
          <mxGeometry width="50" height="50" relative="1" as="geometry">
            <mxPoint x="738.57" y="2310" as="sourcePoint" />
            <mxPoint x="738.57" y="2190" as="targetPoint" />
          </mxGeometry>
        </mxCell>
        <mxCell id="1SwPzvVHOpwxIiqIaS0x-89" value="&lt;font style=&quot;font-size: 23px;&quot;&gt;Отслеживания циркуляции&lt;/font&gt;&lt;div&gt;&lt;font style=&quot;font-size: 23px;&quot;&gt;&amp;nbsp;денег&amp;nbsp;&lt;/font&gt;&lt;/div&gt;" style="shape=step;perimeter=stepPerimeter;whiteSpace=wrap;html=1;fixedSize=1;" vertex="1" parent="1">
          <mxGeometry x="2360" y="2310" width="230" height="110" as="geometry" />
        </mxCell>
        <mxCell id="1SwPzvVHOpwxIiqIaS0x-90" value="&lt;font style=&quot;font-size: 25px;&quot;&gt;Закупка проектных материалов&amp;nbsp;&lt;/font&gt;" style="shape=step;perimeter=stepPerimeter;whiteSpace=wrap;html=1;fixedSize=1;" vertex="1" parent="1">
          <mxGeometry x="1935" y="2320" width="230" height="110" as="geometry" />
        </mxCell>
        <mxCell id="1SwPzvVHOpwxIiqIaS0x-93" value="&lt;p style=&quot;margin: 0px; font-style: normal; font-variant-caps: normal; font-stretch: normal; line-height: normal; font-size-adjust: none; font-kerning: auto; font-variant-alternates: normal; font-variant-ligatures: normal; font-variant-numeric: normal; font-variant-east-asian: normal; font-variant-position: normal; font-variant-emoji: normal; font-feature-settings: normal; font-optical-sizing: auto; font-variation-settings: normal;&quot;&gt;&lt;font style=&quot;font-size: 25px;&quot;&gt;Финансовое сопровождение&lt;/font&gt;&lt;/p&gt;" style="shape=step;perimeter=stepPerimeter;whiteSpace=wrap;html=1;fixedSize=1;" vertex="1" parent="1">
          <mxGeometry x="625" y="2310" width="230" height="110" as="geometry" />
        </mxCell>
        <mxCell id="1SwPzvVHOpwxIiqIaS0x-95" value="&lt;p style=&quot;margin: 0px; font-style: normal; font-variant-caps: normal; font-weight: normal; font-stretch: normal; line-height: normal; font-family: Helvetica; font-size-adjust: none; font-kerning: auto; font-variant-alternates: normal; font-variant-ligatures: normal; font-variant-numeric: normal; font-variant-east-asian: normal; font-variant-position: normal; font-variant-emoji: normal; font-feature-settings: normal; font-optical-sizing: auto; font-variation-settings: normal;&quot;&gt;&lt;font style=&quot;font-size: 30px;&quot;&gt;Вспомогательные процессы&lt;/font&gt;&lt;/p&gt;" style="text;whiteSpace=wrap;html=1;" vertex="1" parent="1">
          <mxGeometry x="1180" y="1950" width="400" height="40" as="geometry" />
        </mxCell>
        <mxCell id="1SwPzvVHOpwxIiqIaS0x-96" value="&lt;p style=&quot;margin: 0px; font-style: normal; font-variant-caps: normal; font-weight: normal; font-stretch: normal; line-height: normal; font-family: Helvetica; font-size-adjust: none; font-kerning: auto; font-variant-alternates: normal; font-variant-ligatures: normal; font-variant-numeric: normal; font-variant-east-asian: normal; font-variant-position: normal; font-variant-emoji: normal; font-feature-settings: normal; font-optical-sizing: auto; font-variation-settings: normal;&quot;&gt;&lt;font style=&quot;font-size: 30px;&quot;&gt;Основные процессы&lt;/font&gt;&lt;/p&gt;" style="text;whiteSpace=wrap;html=1;" vertex="1" parent="1">
          <mxGeometry x="1260" y="860" width="300" height="40" as="geometry" />
        </mxCell>
        <mxCell id="1SwPzvVHOpwxIiqIaS0x-97" value="&lt;p style=&quot;margin: 0px; font-style: normal; font-variant-caps: normal; font-weight: normal; font-stretch: normal; line-height: normal; font-family: Helvetica; font-size-adjust: none; font-kerning: auto; font-variant-alternates: normal; font-variant-ligatures: normal; font-variant-numeric: normal; font-variant-east-asian: normal; font-variant-position: normal; font-variant-emoji: normal; font-feature-settings: normal; font-optical-sizing: auto; font-variation-settings: normal;&quot;&gt;&lt;font style=&quot;font-size: 30px;&quot;&gt;Процессы управления&lt;/font&gt;&lt;/p&gt;" style="text;whiteSpace=wrap;html=1;" vertex="1" parent="1">
          <mxGeometry x="1230" y="-160" width="340" height="40" as="geometry" />
        </mxCell>
        <mxCell id="1SwPzvVHOpwxIiqIaS0x-99" value="" style="endArrow=none;html=1;rounded=0;entryX=0.371;entryY=1.019;entryDx=0;entryDy=0;entryPerimeter=0;" edge="1" parent="1">
          <mxGeometry width="50" height="50" relative="1" as="geometry">
            <mxPoint x="530" y="1550" as="sourcePoint" />
            <mxPoint x="529.09" y="1090" as="targetPoint" />
          </mxGeometry>
        </mxCell>
        <mxCell id="1SwPzvVHOpwxIiqIaS0x-100" value="&lt;font style=&quot;font-size: 25px;&quot;&gt;Получения государственных грантов&lt;/font&gt;" style="shape=step;perimeter=stepPerimeter;whiteSpace=wrap;html=1;fixedSize=1;" vertex="1" parent="1">
          <mxGeometry x="1130" y="435.5" width="230" height="110" as="geometry" />
        </mxCell>
        <mxCell id="1SwPzvVHOpwxIiqIaS0x-101" value="" style="endArrow=none;html=1;rounded=0;exitX=0;exitY=0.5;exitDx=0;exitDy=0;" edge="1" parent="1">
          <mxGeometry width="50" height="50" relative="1" as="geometry">
            <mxPoint x="1149.1699999999998" y="489.5899999999999" as="sourcePoint" />
            <mxPoint x="1070.8366666666666" y="489.5899999999999" as="targetPoint" />
          </mxGeometry>
        </mxCell>
        <mxCell id="1SwPzvVHOpwxIiqIaS0x-102" value="&lt;span style=&quot;font-size: 25px;&quot;&gt;Участие в строительных конференциях&amp;nbsp;&lt;/span&gt;" style="shape=step;perimeter=stepPerimeter;whiteSpace=wrap;html=1;fixedSize=1;" vertex="1" parent="1">
          <mxGeometry x="590" y="1160" width="230" height="110" as="geometry" />
        </mxCell>
        <mxCell id="1SwPzvVHOpwxIiqIaS0x-103" value="&lt;font style=&quot;font-size: 25px;&quot;&gt;Реклама в соцсетях&amp;nbsp;&lt;/font&gt;" style="shape=step;perimeter=stepPerimeter;whiteSpace=wrap;html=1;fixedSize=1;" vertex="1" parent="1">
          <mxGeometry x="590" y="1320" width="230" height="110" as="geometry" />
        </mxCell>
        <mxCell id="1SwPzvVHOpwxIiqIaS0x-104" value="&lt;font style=&quot;font-size: 23px;&quot;&gt;Составления презентации&amp;nbsp;перед потенциальными компаниями&lt;/font&gt;" style="shape=step;perimeter=stepPerimeter;whiteSpace=wrap;html=1;fixedSize=1;" vertex="1" parent="1">
          <mxGeometry x="590" y="1490" width="230" height="110" as="geometry" />
        </mxCell>
        <mxCell id="1SwPzvVHOpwxIiqIaS0x-105" value="" style="endArrow=none;html=1;rounded=0;exitX=0;exitY=0.5;exitDx=0;exitDy=0;" edge="1" parent="1">
          <mxGeometry width="50" height="50" relative="1" as="geometry">
            <mxPoint x="608.33" y="1210.5" as="sourcePoint" />
            <mxPoint x="529.9966666666668" y="1210" as="targetPoint" />
          </mxGeometry>
        </mxCell>
        <mxCell id="1SwPzvVHOpwxIiqIaS0x-106" value="" style="endArrow=none;html=1;rounded=0;exitX=0;exitY=0.5;exitDx=0;exitDy=0;" edge="1" parent="1">
          <mxGeometry width="50" height="50" relative="1" as="geometry">
            <mxPoint x="608.33" y="1545.25" as="sourcePoint" />
            <mxPoint x="529.9966666666668" y="1544.75" as="targetPoint" />
          </mxGeometry>
        </mxCell>
        <mxCell id="1SwPzvVHOpwxIiqIaS0x-107" value="" style="endArrow=none;html=1;rounded=0;exitX=0;exitY=0.5;exitDx=0;exitDy=0;" edge="1" parent="1">
          <mxGeometry width="50" height="50" relative="1" as="geometry">
            <mxPoint x="608.33" y="1374.5" as="sourcePoint" />
            <mxPoint x="529.9966666666668" y="1374" as="targetPoint" />
          </mxGeometry>
        </mxCell>
        <mxCell id="1SwPzvVHOpwxIiqIaS0x-109" value="" style="endArrow=none;html=1;rounded=0;entryX=0.371;entryY=1.019;entryDx=0;entryDy=0;entryPerimeter=0;" edge="1" parent="1">
          <mxGeometry width="50" height="50" relative="1" as="geometry">
            <mxPoint x="1220.9099999999999" y="1810" as="sourcePoint" />
            <mxPoint x="1220" y="1350" as="targetPoint" />
          </mxGeometry>
        </mxCell>
        <mxCell id="1SwPzvVHOpwxIiqIaS0x-110" value="&lt;p style=&quot;margin: 0px; font-style: normal; font-variant-caps: normal; font-weight: normal; font-stretch: normal; line-height: normal; font-family: Helvetica; font-size-adjust: none; font-kerning: auto; font-variant-alternates: normal; font-variant-ligatures: normal; font-variant-numeric: normal; font-variant-east-asian: normal; font-variant-position: normal; font-variant-emoji: normal; font-feature-settings: normal; font-optical-sizing: auto; font-variation-settings: normal;&quot;&gt;&lt;font style=&quot;font-size: 23px;&quot;&gt;Заключение договора&lt;/font&gt;&lt;/p&gt;" style="shape=step;perimeter=stepPerimeter;whiteSpace=wrap;html=1;fixedSize=1;" vertex="1" parent="1">
          <mxGeometry x="1280.9099999999999" y="1420" width="230" height="110" as="geometry" />
        </mxCell>
        <mxCell id="1SwPzvVHOpwxIiqIaS0x-111" value="&lt;p style=&quot;margin: 0px; font-style: normal; font-variant-caps: normal; font-stretch: normal; line-height: normal; font-size-adjust: none; font-kerning: auto; font-variant-alternates: normal; font-variant-ligatures: normal; font-variant-numeric: normal; font-variant-east-asian: normal; font-variant-position: normal; font-variant-emoji: normal; font-feature-settings: normal; font-optical-sizing: auto; font-variation-settings: normal;&quot;&gt;&lt;font style=&quot;font-size: 23px;&quot;&gt;Разработка проектной документации&lt;/font&gt;&lt;/p&gt;" style="shape=step;perimeter=stepPerimeter;whiteSpace=wrap;html=1;fixedSize=1;" vertex="1" parent="1">
          <mxGeometry x="1280.9099999999999" y="1580" width="230" height="110" as="geometry" />
        </mxCell>
        <mxCell id="1SwPzvVHOpwxIiqIaS0x-112" value="&lt;p style=&quot;margin: 0px; font-style: normal; font-variant-caps: normal; font-stretch: normal; line-height: normal; font-size-adjust: none; font-kerning: auto; font-variant-alternates: normal; font-variant-ligatures: normal; font-variant-numeric: normal; font-variant-east-asian: normal; font-variant-position: normal; font-variant-emoji: normal; font-feature-settings: normal; font-optical-sizing: auto; font-variation-settings: normal;&quot;&gt;&lt;font style=&quot;font-size: 23px;&quot;&gt;Этапное согласование и сдача работ&lt;/font&gt;&lt;/p&gt;" style="shape=step;perimeter=stepPerimeter;whiteSpace=wrap;html=1;fixedSize=1;" vertex="1" parent="1">
          <mxGeometry x="1280.9099999999999" y="1750" width="230" height="110" as="geometry" />
        </mxCell>
        <mxCell id="1SwPzvVHOpwxIiqIaS0x-113" value="" style="endArrow=none;html=1;rounded=0;exitX=0;exitY=0.5;exitDx=0;exitDy=0;" edge="1" parent="1">
          <mxGeometry width="50" height="50" relative="1" as="geometry">
            <mxPoint x="1298.33" y="1474.79" as="sourcePoint" />
            <mxPoint x="1219.9966666666667" y="1474.29" as="targetPoint" />
          </mxGeometry>
        </mxCell>
        <mxCell id="1SwPzvVHOpwxIiqIaS0x-114" value="" style="endArrow=none;html=1;rounded=0;exitX=0;exitY=0.5;exitDx=0;exitDy=0;" edge="1" parent="1">
          <mxGeometry width="50" height="50" relative="1" as="geometry">
            <mxPoint x="1299.24" y="1805.25" as="sourcePoint" />
            <mxPoint x="1220.9066666666668" y="1804.75" as="targetPoint" />
          </mxGeometry>
        </mxCell>
        <mxCell id="1SwPzvVHOpwxIiqIaS0x-115" value="" style="endArrow=none;html=1;rounded=0;exitX=0;exitY=0.5;exitDx=0;exitDy=0;" edge="1" parent="1">
          <mxGeometry width="50" height="50" relative="1" as="geometry">
            <mxPoint x="1299.24" y="1634.5" as="sourcePoint" />
            <mxPoint x="1220.9066666666668" y="1634" as="targetPoint" />
          </mxGeometry>
        </mxCell>
        <mxCell id="1SwPzvVHOpwxIiqIaS0x-116" style="edgeStyle=orthogonalEdgeStyle;rounded=0;orthogonalLoop=1;jettySize=auto;html=1;entryX=0.5;entryY=0;entryDx=0;entryDy=0;" edge="1" parent="1" target="1SwPzvVHOpwxIiqIaS0x-118">
          <mxGeometry relative="1" as="geometry">
            <mxPoint x="1390.91" y="1160" as="sourcePoint" />
          </mxGeometry>
        </mxCell>
        <mxCell id="1SwPzvVHOpwxIiqIaS0x-117" style="edgeStyle=orthogonalEdgeStyle;rounded=0;orthogonalLoop=1;jettySize=auto;html=1;entryX=0.5;entryY=0;entryDx=0;entryDy=0;" edge="1" parent="1" target="1SwPzvVHOpwxIiqIaS0x-119">
          <mxGeometry relative="1" as="geometry">
            <mxPoint x="1390.91" y="1160" as="sourcePoint" />
          </mxGeometry>
        </mxCell>
        <mxCell id="1SwPzvVHOpwxIiqIaS0x-118" value="&lt;span style=&quot;font-size: 26px;&quot;&gt;Коммерческие компании&lt;/span&gt;" style="shape=step;perimeter=stepPerimeter;whiteSpace=wrap;html=1;fixedSize=1;" vertex="1" parent="1">
          <mxGeometry x="1100.91" y="1220" width="240" height="130" as="geometry" />
        </mxCell>
        <mxCell id="1SwPzvVHOpwxIiqIaS0x-119" value="&lt;font style=&quot;font-size: 24px;&quot;&gt;Некоммерческие компании&lt;/font&gt;" style="shape=step;perimeter=stepPerimeter;whiteSpace=wrap;html=1;fixedSize=1;" vertex="1" parent="1">
          <mxGeometry x="1440.91" y="1220" width="240" height="130" as="geometry" />
        </mxCell>
        <mxCell id="1SwPzvVHOpwxIiqIaS0x-128" value="" style="endArrow=none;html=1;rounded=0;entryX=0.371;entryY=1.019;entryDx=0;entryDy=0;entryPerimeter=0;" edge="1" parent="1">
          <mxGeometry width="50" height="50" relative="1" as="geometry">
            <mxPoint x="2240.91" y="1560" as="sourcePoint" />
            <mxPoint x="2240" y="1100" as="targetPoint" />
          </mxGeometry>
        </mxCell>
        <mxCell id="1SwPzvVHOpwxIiqIaS0x-129" value="&lt;font style=&quot;font-size: 25px;&quot;&gt;Сбор и анализ обратной связи&amp;nbsp;&lt;/font&gt;" style="shape=step;perimeter=stepPerimeter;whiteSpace=wrap;html=1;fixedSize=1;" vertex="1" parent="1">
          <mxGeometry x="2300.91" y="1170" width="230" height="110" as="geometry" />
        </mxCell>
        <mxCell id="1SwPzvVHOpwxIiqIaS0x-130" value="&lt;font style=&quot;font-size: 27px;&quot;&gt;Техническая поддержка&amp;nbsp;&lt;/font&gt;" style="shape=step;perimeter=stepPerimeter;whiteSpace=wrap;html=1;fixedSize=1;" vertex="1" parent="1">
          <mxGeometry x="2300.91" y="1330" width="230" height="110" as="geometry" />
        </mxCell>
        <mxCell id="1SwPzvVHOpwxIiqIaS0x-131" value="&lt;font style=&quot;font-size: 25px;&quot;&gt;Гарантийный&amp;nbsp;&lt;/font&gt;&lt;div&gt;&lt;font style=&quot;font-size: 25px;&quot;&gt;срок на ремонт&lt;/font&gt;&lt;/div&gt;" style="shape=step;perimeter=stepPerimeter;whiteSpace=wrap;html=1;fixedSize=1;" vertex="1" parent="1">
          <mxGeometry x="2300.91" y="1500" width="230" height="110" as="geometry" />
        </mxCell>
        <mxCell id="1SwPzvVHOpwxIiqIaS0x-132" value="" style="endArrow=none;html=1;rounded=0;exitX=0;exitY=0.5;exitDx=0;exitDy=0;" edge="1" parent="1">
          <mxGeometry width="50" height="50" relative="1" as="geometry">
            <mxPoint x="2319.2400000000002" y="1220.5" as="sourcePoint" />
            <mxPoint x="2240.9066666666668" y="1220" as="targetPoint" />
          </mxGeometry>
        </mxCell>
        <mxCell id="1SwPzvVHOpwxIiqIaS0x-133" value="" style="endArrow=none;html=1;rounded=0;exitX=0;exitY=0.5;exitDx=0;exitDy=0;" edge="1" parent="1">
          <mxGeometry width="50" height="50" relative="1" as="geometry">
            <mxPoint x="2319.2400000000002" y="1555.25" as="sourcePoint" />
            <mxPoint x="2240.9066666666668" y="1554.75" as="targetPoint" />
          </mxGeometry>
        </mxCell>
        <mxCell id="1SwPzvVHOpwxIiqIaS0x-134" value="" style="endArrow=none;html=1;rounded=0;exitX=0;exitY=0.5;exitDx=0;exitDy=0;" edge="1" parent="1">
          <mxGeometry width="50" height="50" relative="1" as="geometry">
            <mxPoint x="2319.2400000000002" y="1384.5" as="sourcePoint" />
            <mxPoint x="2240.9066666666668" y="1384" as="targetPoint" />
          </mxGeometry>
        </mxCell>
        <mxCell id="1SwPzvVHOpwxIiqIaS0x-139" value="" style="endArrow=none;html=1;rounded=0;entryX=0.371;entryY=1.019;entryDx=0;entryDy=0;entryPerimeter=0;" edge="1" parent="1">
          <mxGeometry width="50" height="50" relative="1" as="geometry">
            <mxPoint x="1580" y="2480" as="sourcePoint" />
            <mxPoint x="1580" y="2190" as="targetPoint" />
          </mxGeometry>
        </mxCell>
        <mxCell id="1SwPzvVHOpwxIiqIaS0x-140" value="&lt;span style=&quot;font-size: 28px;&quot;&gt;Отбор нужных специалистов&amp;nbsp;&lt;/span&gt;" style="shape=step;perimeter=stepPerimeter;whiteSpace=wrap;html=1;fixedSize=1;" vertex="1" parent="1">
          <mxGeometry x="1640.9099999999999" y="2260" width="230" height="110" as="geometry" />
        </mxCell>
        <mxCell id="1SwPzvVHOpwxIiqIaS0x-141" value="&lt;span style=&quot;font-size: 28px;&quot;&gt;Обучения сотрудников&lt;/span&gt;" style="shape=step;perimeter=stepPerimeter;whiteSpace=wrap;html=1;fixedSize=1;" vertex="1" parent="1">
          <mxGeometry x="1640.9099999999999" y="2420" width="230" height="110" as="geometry" />
        </mxCell>
        <mxCell id="1SwPzvVHOpwxIiqIaS0x-143" value="" style="endArrow=none;html=1;rounded=0;exitX=0;exitY=0.5;exitDx=0;exitDy=0;" edge="1" parent="1">
          <mxGeometry width="50" height="50" relative="1" as="geometry">
            <mxPoint x="1659.2400000000002" y="2310.5" as="sourcePoint" />
            <mxPoint x="1580.9066666666668" y="2310" as="targetPoint" />
          </mxGeometry>
        </mxCell>
        <mxCell id="1SwPzvVHOpwxIiqIaS0x-145" value="" style="endArrow=none;html=1;rounded=0;exitX=0;exitY=0.5;exitDx=0;exitDy=0;" edge="1" parent="1">
          <mxGeometry width="50" height="50" relative="1" as="geometry">
            <mxPoint x="1659.2400000000002" y="2474.5" as="sourcePoint" />
            <mxPoint x="1580.9066666666668" y="2474" as="targetPoint" />
          </mxGeometry>
        </mxCell>
        <mxCell id="1SwPzvVHOpwxIiqIaS0x-147" value="" style="endArrow=none;html=1;rounded=0;entryX=0.371;entryY=1.019;entryDx=0;entryDy=0;entryPerimeter=0;" edge="1" parent="1">
          <mxGeometry width="50" height="50" relative="1" as="geometry">
            <mxPoint x="1159.09" y="2480" as="sourcePoint" />
            <mxPoint x="1159.09" y="2190" as="targetPoint" />
          </mxGeometry>
        </mxCell>
        <mxCell id="1SwPzvVHOpwxIiqIaS0x-148" value="&lt;span style=&quot;font-size: 28px;&quot;&gt;Регулярные обновления сайта&lt;/span&gt;" style="shape=step;perimeter=stepPerimeter;whiteSpace=wrap;html=1;fixedSize=1;" vertex="1" parent="1">
          <mxGeometry x="1219.9999999999998" y="2260" width="230" height="110" as="geometry" />
        </mxCell>
        <mxCell id="1SwPzvVHOpwxIiqIaS0x-149" value="&lt;div style=&quot;&quot;&gt;&lt;span style=&quot;font-size: 28px;&quot;&gt;Поддержка системы BPMS&lt;/span&gt;&lt;span style=&quot;font-size: 28px;&quot;&gt;&amp;nbsp;&lt;/span&gt;&lt;/div&gt;" style="shape=step;perimeter=stepPerimeter;whiteSpace=wrap;html=1;fixedSize=1;align=center;" vertex="1" parent="1">
          <mxGeometry x="1219.9999999999998" y="2420" width="230" height="110" as="geometry" />
        </mxCell>
        <mxCell id="1SwPzvVHOpwxIiqIaS0x-150" value="" style="endArrow=none;html=1;rounded=0;exitX=0;exitY=0.5;exitDx=0;exitDy=0;" edge="1" parent="1">
          <mxGeometry width="50" height="50" relative="1" as="geometry">
            <mxPoint x="1238.3300000000002" y="2310.5" as="sourcePoint" />
            <mxPoint x="1159.9966666666667" y="2310" as="targetPoint" />
          </mxGeometry>
        </mxCell>
        <mxCell id="1SwPzvVHOpwxIiqIaS0x-151" value="" style="endArrow=none;html=1;rounded=0;exitX=0;exitY=0.5;exitDx=0;exitDy=0;" edge="1" parent="1">
          <mxGeometry width="50" height="50" relative="1" as="geometry">
            <mxPoint x="1238.3300000000002" y="2474.5" as="sourcePoint" />
            <mxPoint x="1159.9966666666667" y="2474" as="targetPoint" />
          </mxGeometry>
        </mxCell>
        <mxCell id="1SwPzvVHOpwxIiqIaS0x-152" value="" style="endArrow=none;html=1;rounded=0;entryX=0.371;entryY=1.019;entryDx=0;entryDy=0;entryPerimeter=0;" edge="1" parent="1">
          <mxGeometry width="50" height="50" relative="1" as="geometry">
            <mxPoint x="1560.9099999999999" y="1810" as="sourcePoint" />
            <mxPoint x="1560" y="1350" as="targetPoint" />
          </mxGeometry>
        </mxCell>
        <mxCell id="1SwPzvVHOpwxIiqIaS0x-153" value="&lt;p style=&quot;margin: 0px; font-style: normal; font-variant-caps: normal; font-weight: normal; font-stretch: normal; line-height: normal; font-family: Helvetica; font-size-adjust: none; font-kerning: auto; font-variant-alternates: normal; font-variant-ligatures: normal; font-variant-numeric: normal; font-variant-east-asian: normal; font-variant-position: normal; font-variant-emoji: normal; font-feature-settings: normal; font-optical-sizing: auto; font-variation-settings: normal;&quot;&gt;&lt;font style=&quot;font-size: 23px;&quot;&gt;Заключение договора&lt;/font&gt;&lt;/p&gt;" style="shape=step;perimeter=stepPerimeter;whiteSpace=wrap;html=1;fixedSize=1;" vertex="1" parent="1">
          <mxGeometry x="1620.9099999999999" y="1420" width="230" height="110" as="geometry" />
        </mxCell>
        <mxCell id="1SwPzvVHOpwxIiqIaS0x-154" value="&lt;p style=&quot;margin: 0px; font-style: normal; font-variant-caps: normal; font-stretch: normal; line-height: normal; font-size-adjust: none; font-kerning: auto; font-variant-alternates: normal; font-variant-ligatures: normal; font-variant-numeric: normal; font-variant-east-asian: normal; font-variant-position: normal; font-variant-emoji: normal; font-feature-settings: normal; font-optical-sizing: auto; font-variation-settings: normal;&quot;&gt;&lt;font style=&quot;font-size: 23px;&quot;&gt;Разработка проектной документации&lt;/font&gt;&lt;/p&gt;" style="shape=step;perimeter=stepPerimeter;whiteSpace=wrap;html=1;fixedSize=1;" vertex="1" parent="1">
          <mxGeometry x="1620.9099999999999" y="1580" width="230" height="110" as="geometry" />
        </mxCell>
        <mxCell id="1SwPzvVHOpwxIiqIaS0x-155" value="&lt;p style=&quot;margin: 0px; font-style: normal; font-variant-caps: normal; font-stretch: normal; line-height: normal; font-size-adjust: none; font-kerning: auto; font-variant-alternates: normal; font-variant-ligatures: normal; font-variant-numeric: normal; font-variant-east-asian: normal; font-variant-position: normal; font-variant-emoji: normal; font-feature-settings: normal; font-optical-sizing: auto; font-variation-settings: normal;&quot;&gt;&lt;font style=&quot;font-size: 23px;&quot;&gt;Этапное согласование и сдача работ&lt;/font&gt;&lt;/p&gt;" style="shape=step;perimeter=stepPerimeter;whiteSpace=wrap;html=1;fixedSize=1;" vertex="1" parent="1">
          <mxGeometry x="1620.9099999999999" y="1750" width="230" height="110" as="geometry" />
        </mxCell>
        <mxCell id="1SwPzvVHOpwxIiqIaS0x-156" value="" style="endArrow=none;html=1;rounded=0;exitX=0;exitY=0.5;exitDx=0;exitDy=0;" edge="1" parent="1">
          <mxGeometry width="50" height="50" relative="1" as="geometry">
            <mxPoint x="1638.33" y="1474.79" as="sourcePoint" />
            <mxPoint x="1559.9966666666664" y="1474.29" as="targetPoint" />
          </mxGeometry>
        </mxCell>
        <mxCell id="1SwPzvVHOpwxIiqIaS0x-157" value="" style="endArrow=none;html=1;rounded=0;exitX=0;exitY=0.5;exitDx=0;exitDy=0;" edge="1" parent="1">
          <mxGeometry width="50" height="50" relative="1" as="geometry">
            <mxPoint x="1639.2399999999998" y="1805.25" as="sourcePoint" />
            <mxPoint x="1560.9066666666668" y="1804.75" as="targetPoint" />
          </mxGeometry>
        </mxCell>
        <mxCell id="1SwPzvVHOpwxIiqIaS0x-158" value="" style="endArrow=none;html=1;rounded=0;exitX=0;exitY=0.5;exitDx=0;exitDy=0;" edge="1" parent="1">
          <mxGeometry width="50" height="50" relative="1" as="geometry">
            <mxPoint x="1639.2399999999998" y="1634.5" as="sourcePoint" />
            <mxPoint x="1560.9066666666668" y="1634" as="targetPoint" />
          </mxGeometry>
        </mxCell>
        <mxCell id="1SwPzvVHOpwxIiqIaS0x-159" value="" style="endArrow=none;html=1;rounded=0;entryX=0.421;entryY=1.013;entryDx=0;entryDy=0;entryPerimeter=0;" edge="1" parent="1" target="1SwPzvVHOpwxIiqIaS0x-81">
          <mxGeometry width="50" height="50" relative="1" as="geometry">
            <mxPoint x="249.9999999999999" y="2495" as="sourcePoint" />
            <mxPoint x="249.9999999999999" y="2205" as="targetPoint" />
          </mxGeometry>
        </mxCell>
        <mxCell id="1SwPzvVHOpwxIiqIaS0x-160" value="&lt;font style=&quot;font-size: 22px;&quot;&gt;Регулярные консультации и юридическая поддержка&amp;nbsp;&lt;/font&gt;" style="shape=step;perimeter=stepPerimeter;whiteSpace=wrap;html=1;fixedSize=1;" vertex="1" parent="1">
          <mxGeometry x="310.90999999999974" y="2275" width="230" height="110" as="geometry" />
        </mxCell>
        <mxCell id="1SwPzvVHOpwxIiqIaS0x-161" value="&lt;div style=&quot;&quot;&gt;&lt;font style=&quot;font-size: 23px;&quot;&gt;Проверка и разработка проектных договоров&lt;/font&gt;&lt;/div&gt;" style="shape=step;perimeter=stepPerimeter;whiteSpace=wrap;html=1;fixedSize=1;align=center;" vertex="1" parent="1">
          <mxGeometry x="310.90999999999974" y="2435" width="230" height="110" as="geometry" />
        </mxCell>
        <mxCell id="1SwPzvVHOpwxIiqIaS0x-162" value="" style="endArrow=none;html=1;rounded=0;exitX=0;exitY=0.5;exitDx=0;exitDy=0;" edge="1" parent="1">
          <mxGeometry width="50" height="50" relative="1" as="geometry">
            <mxPoint x="329.2400000000001" y="2325.5" as="sourcePoint" />
            <mxPoint x="250.90666666666664" y="2325" as="targetPoint" />
          </mxGeometry>
        </mxCell>
        <mxCell id="1SwPzvVHOpwxIiqIaS0x-163" value="" style="endArrow=none;html=1;rounded=0;exitX=0;exitY=0.5;exitDx=0;exitDy=0;" edge="1" parent="1">
          <mxGeometry width="50" height="50" relative="1" as="geometry">
            <mxPoint x="329.2400000000001" y="2489.5" as="sourcePoint" />
            <mxPoint x="250.90666666666664" y="2489" as="targetPoint" />
          </mxGeometry>
        </mxCell>
      </root>
    </mxGraphModel>
  </diagram>
</mxfile>
